<svg xmlns="http://www.w3.org/2000/svg" width="760" height="400" viewBox="0 0 760 400" role="img" aria-label="Bitų skirtumo histograma">
<style>text{font-family:system-ui,-apple-system,'Segoe UI',sans-serif} .bg{fill:#fcfcfb} .t{fill:#0b0b0b} .t2{fill:#52514e} .grid{stroke:#e4e3de} .axis,.ref{stroke:#52514e} .fs{fill:#2a78d6} .ss{stroke:#2a78d6} .ring{stroke:#fcfcfb} @media (prefers-color-scheme: dark){.bg{fill:#1a1a19} .t{fill:#ffffff} .t2{fill:#c3c2b7} .grid{stroke:#353533} .axis,.ref{stroke:#c3c2b7} .fs{fill:#3987e5} .ss{stroke:#3987e5} .ring{stroke:#1a1a19}}</style>
<rect class="bg" fill="#fcfcfb" width="760" height="400"/>
<text class="t" x="70" y="28" font-size="16" font-weight="600">Bitų skirtumo pasiskirstymas (100 000 porų, pakeistas vienas simbolis)</text>
<line class="ref" stroke="#52514e" x1="70" y1="46" x2="92" y2="46" stroke-width="2"/><text class="t2" x="98" y="50" font-size="12">tikėtina idealiai maišai B(256; 0,5)</text>
<line class="grid" stroke="#e4e3de" x1="78" y1="338.0" x2="720" y2="338.0"/><text class="t2" x="70" y="342.0" font-size="12" text-anchor="end">0</text>
<line class="grid" stroke="#e4e3de" x1="78" y1="288.0" x2="720" y2="288.0"/><text class="t2" x="70" y="292.0" font-size="12" text-anchor="end">2 000</text>
<line class="grid" stroke="#e4e3de" x1="78" y1="238.0" x2="720" y2="238.0"/><text class="t2" x="70" y="242.0" font-size="12" text-anchor="end">4 000</text>
<line class="grid" stroke="#e4e3de" x1="78" y1="188.0" x2="720" y2="188.0"/><text class="t2" x="70" y="192.0" font-size="12" text-anchor="end">6 000</text>
<line class="grid" stroke="#e4e3de" x1="78" y1="138.0" x2="720" y2="138.0"/><text class="t2" x="70" y="142.0" font-size="12" text-anchor="end">8 000</text>
<line class="grid" stroke="#e4e3de" x1="78" y1="88.0" x2="720" y2="88.0"/><text class="t2" x="70" y="92.0" font-size="12" text-anchor="end">10 000</text>
<text class="t2" x="180.1" y="356" font-size="12" text-anchor="middle">40 %</text>
<text class="t2" x="285.4" y="356" font-size="12" text-anchor="middle">45 %</text>
<text class="t2" x="390.8" y="356" font-size="12" text-anchor="middle">50 %</text>
<text class="t2" x="496.1" y="356" font-size="12" text-anchor="middle">55 %</text>
<text class="t2" x="601.5" y="356" font-size="12" text-anchor="middle">60 %</text>
<text class="t2" x="706.8" y="356" font-size="12" text-anchor="middle">65 %</text>
<rect class="fs" fill="#2a78d6" x="95.5" y="338.0" width="14.5" height="0.0" rx="1"><title>92–93 bitų skiriasi – 1 porų</title></rect>
<rect class="fs" fill="#2a78d6" x="111.9" y="337.9" width="14.5" height="0.1" rx="1"><title>94–95 bitų skiriasi – 3 porų</title></rect>
<rect class="fs" fill="#2a78d6" x="128.4" y="337.9" width="14.5" height="0.1" rx="1"><title>96–97 bitų skiriasi – 2 porų</title></rect>
<rect class="fs" fill="#2a78d6" x="144.8" y="337.7" width="14.5" height="0.3" rx="1"><title>98–99 bitų skiriasi – 12 porų</title></rect>
<rect class="fs" fill="#2a78d6" x="161.3" y="337.0" width="14.5" height="1.0" rx="1"><title>100–101 bitų skiriasi – 39 porų</title></rect>
<rect class="fs" fill="#2a78d6" x="177.8" y="336.4" width="14.5" height="1.6" rx="1"><title>102–103 bitų skiriasi – 62 porų</title></rect>
<rect class="fs" fill="#2a78d6" x="194.2" y="334.6" width="14.5" height="3.4" rx="1"><title>104–105 bitų skiriasi – 136 porų</title></rect>
<rect class="fs" fill="#2a78d6" x="210.7" y="331.5" width="14.5" height="6.5" rx="1"><title>106–107 bitų skiriasi – 260 porų</title></rect>
<rect class="fs" fill="#2a78d6" x="227.2" y="325.4" width="14.5" height="12.6" rx="1"><title>108–109 bitų skiriasi – 504 porų</title></rect>
<rect class="fs" fill="#2a78d6" x="243.6" y="313.2" width="14.5" height="24.8" rx="1"><title>110–111 bitų skiriasi – 992 porų</title></rect>
<rect class="fs" fill="#2a78d6" x="260.1" y="300.3" width="14.5" height="37.7" rx="1"><title>112–113 bitų skiriasi – 1 509 porų</title></rect>
<rect class="fs" fill="#2a78d6" x="276.5" y="277.7" width="14.5" height="60.3" rx="1"><title>114–115 bitų skiriasi – 2 411 porų</title></rect>
<rect class="fs" fill="#2a78d6" x="293.0" y="248.0" width="14.5" height="90.0" rx="1"><title>116–117 bitų skiriasi – 3 600 porų</title></rect>
<rect class="fs" fill="#2a78d6" x="309.5" y="214.6" width="14.5" height="123.4" rx="1"><title>118–119 bitų skiriasi – 4 935 porų</title></rect>
<rect class="fs" fill="#2a78d6" x="325.9" y="178.1" width="14.5" height="159.9" rx="1"><title>120–121 bitų skiriasi – 6 395 porų</title></rect>
<rect class="fs" fill="#2a78d6" x="342.4" y="138.5" width="14.5" height="199.5" rx="1"><title>122–123 bitų skiriasi – 7 979 porų</title></rect>
<rect class="fs" fill="#2a78d6" x="358.8" y="111.3" width="14.5" height="226.7" rx="1"><title>124–125 bitų skiriasi – 9 069 porų</title></rect>
<rect class="fs" fill="#2a78d6" x="375.3" y="92.1" width="14.5" height="245.9" rx="1"><title>126–127 bitų skiriasi – 9 836 porų</title></rect>
<rect class="fs" fill="#2a78d6" x="391.8" y="91.7" width="14.5" height="246.3" rx="1"><title>128–129 bitų skiriasi – 9 850 porų</title></rect>
<rect class="fs" fill="#2a78d6" x="408.2" y="103.5" width="14.5" height="234.5" rx="1"><title>130–131 bitų skiriasi – 9 380 porų</title></rect>
<rect class="fs" fill="#2a78d6" x="424.7" y="129.9" width="14.5" height="208.1" rx="1"><title>132–133 bitų skiriasi – 8 324 porų</title></rect>
<rect class="fs" fill="#2a78d6" x="441.2" y="160.1" width="14.5" height="177.9" rx="1"><title>134–135 bitų skiriasi – 7 115 porų</title></rect>
<rect class="fs" fill="#2a78d6" x="457.6" y="195.0" width="14.5" height="143.0" rx="1"><title>136–137 bitų skiriasi – 5 720 porų</title></rect>
<rect class="fs" fill="#2a78d6" x="474.1" y="230.5" width="14.5" height="107.5" rx="1"><title>138–139 bitų skiriasi – 4 301 porų</title></rect>
<rect class="fs" fill="#2a78d6" x="490.5" y="263.3" width="14.5" height="74.7" rx="1"><title>140–141 bitų skiriasi – 2 988 porų</title></rect>
<rect class="fs" fill="#2a78d6" x="507.0" y="288.9" width="14.5" height="49.1" rx="1"><title>142–143 bitų skiriasi – 1 963 porų</title></rect>
<rect class="fs" fill="#2a78d6" x="523.5" y="308.0" width="14.5" height="30.0" rx="1"><title>144–145 bitų skiriasi – 1 201 porų</title></rect>
<rect class="fs" fill="#2a78d6" x="539.9" y="320.4" width="14.5" height="17.6" rx="1"><title>146–147 bitų skiriasi – 703 porų</title></rect>
<rect class="fs" fill="#2a78d6" x="556.4" y="329.1" width="14.5" height="8.9" rx="1"><title>148–149 bitų skiriasi – 355 porų</title></rect>
<rect class="fs" fill="#2a78d6" x="572.8" y="333.0" width="14.5" height="5.0" rx="1"><title>150–151 bitų skiriasi – 201 porų</title></rect>
<rect class="fs" fill="#2a78d6" x="589.3" y="335.7" width="14.5" height="2.3" rx="1"><title>152–153 bitų skiriasi – 92 porų</title></rect>
<rect class="fs" fill="#2a78d6" x="605.8" y="337.0" width="14.5" height="1.0" rx="1"><title>154–155 bitų skiriasi – 38 porų</title></rect>
<rect class="fs" fill="#2a78d6" x="622.2" y="337.6" width="14.5" height="0.4" rx="1"><title>156–157 bitų skiriasi – 14 porų</title></rect>
<rect class="fs" fill="#2a78d6" x="638.7" y="337.9" width="14.5" height="0.1" rx="1"><title>158–159 bitų skiriasi – 5 porų</title></rect>
<rect class="fs" fill="#2a78d6" x="655.2" y="337.9" width="14.5" height="0.1" rx="1"><title>160–161 bitų skiriasi – 2 porų</title></rect>
<rect class="fs" fill="#2a78d6" x="671.6" y="337.9" width="14.5" height="0.1" rx="1"><title>162–163 bitų skiriasi – 2 porų</title></rect>
<rect class="fs" fill="#2a78d6" x="688.1" y="338.0" width="14.5" height="0.0" rx="1"><title>164–165 bitų skiriasi – 1 porų</title></rect>
<path class="ref" stroke="#52514e" fill="none" stroke-width="2" d="M86.2,338.0 L102.7,338.0 L119.2,338.0 L135.6,337.9 L152.1,337.7 L168.5,337.3 L185.0,336.4 L201.5,334.6 L217.9,331.2 L234.4,325.1 L250.8,315.0 L267.3,299.6 L283.8,277.6 L300.2,248.9 L316.7,214.6 L333.2,177.3 L349.6,141.4 L366.1,111.9 L382.5,93.7 L399.0,89.9 L415.5,101.1 L431.9,125.5 L448.4,158.8 L464.8,196.0 L481.3,232.3 L497.8,264.1 L514.2,289.4 L530.7,308.0 L547.2,320.6 L563.6,328.6 L580.1,333.2 L596.5,335.7 L613.0,337.0 L629.5,337.6 L645.9,337.8 L662.4,337.9 L678.8,338.0 L695.3,338.0 L711.8,338.0"/>
<line class="axis" stroke="#52514e" x1="78" y1="338" x2="720" y2="338"/>
<text class="t2" x="399.0" y="384" font-size="13" text-anchor="middle">Pasikeitusių maišos bitų dalis</text>
<text class="t2" transform="translate(20 204.0) rotate(-90)" font-size="13" text-anchor="middle">Porų skaičius</text>
</svg>
