<svg xmlns="http://www.w3.org/2000/svg" width="760" height="440" viewBox="0 0 760 440" role="img" aria-label="Vienos maišos skaičiavimo laikas pagal įvesties dydį">
<style>text{font-family:system-ui,-apple-system,'Segoe UI',sans-serif} .bg{fill:#fcfcfb} .t{fill:#0b0b0b} .t2{fill:#52514e} .grid{stroke:#e4e3de} .axis{stroke:#52514e} .f-v2{fill:#2a78d6} .s-v2{stroke:#2a78d6} .f-v1{fill:#eb6834} .s-v1{stroke:#eb6834} .f-ratas{fill:#1baf7a} .s-ratas{stroke:#1baf7a} .ring{stroke:#fcfcfb} .ref{stroke:#52514e} @media (prefers-color-scheme: dark){.bg{fill:#1a1a19} .t{fill:#ffffff} .t2{fill:#c3c2b7} .grid{stroke:#353533} .axis{stroke:#c3c2b7} .f-v2{fill:#3987e5} .s-v2{stroke:#3987e5} .f-v1{fill:#d95926} .s-v1{stroke:#d95926} .f-ratas{fill:#199e70} .s-ratas{stroke:#199e70} .ring{stroke:#1a1a19} .ref{stroke:#c3c2b7}}</style>
<rect class="bg" fill="#fcfcfb" width="760" height="440"/>
<text class="t" x="78" y="26" font-size="16" font-weight="600">Vienos maišos skaičiavimo laikas pagal įvesties dydį</text>
<rect class="f-v2" fill="#2a78d6" x="78" y="38" width="12" height="12" rx="3"/><text class="t2" x="95" y="48" font-size="12">2 versija</text>
<rect class="f-v1" fill="#eb6834" x="188" y="38" width="12" height="12" rx="3"/><text class="t2" x="205" y="48" font-size="12">1 versija</text>
<rect class="f-ratas" fill="#1baf7a" x="298" y="38" width="12" height="12" rx="3"/><text class="t2" x="315" y="48" font-size="12">Ratas v0.1</text>
<line class="grid" stroke="#e4e3de" x1="78.0" y1="64" x2="78.0" y2="378"/><text class="t2" x="78.0" y="396" font-size="12" text-anchor="middle">10</text>
<line class="grid" stroke="#e4e3de" x1="218.5" y1="64" x2="218.5" y2="378"/><text class="t2" x="218.5" y="396" font-size="12" text-anchor="middle">100</text>
<line class="grid" stroke="#e4e3de" x1="359.0" y1="64" x2="359.0" y2="378"/><text class="t2" x="359.0" y="396" font-size="12" text-anchor="middle">1 000</text>
<line class="grid" stroke="#e4e3de" x1="499.5" y1="64" x2="499.5" y2="378"/><text class="t2" x="499.5" y="396" font-size="12" text-anchor="middle">10 000</text>
<line class="grid" stroke="#e4e3de" x1="640.0" y1="64" x2="640.0" y2="378"/><text class="t2" x="640.0" y="396" font-size="12" text-anchor="middle">100 000</text>
<line class="grid" stroke="#e4e3de" x1="78" y1="378.0" x2="640" y2="378.0"/><text class="t2" x="70" y="382.0" font-size="12" text-anchor="end">0,01</text>
<line class="grid" stroke="#e4e3de" x1="78" y1="299.5" x2="640" y2="299.5"/><text class="t2" x="70" y="303.5" font-size="12" text-anchor="end">0,1</text>
<line class="grid" stroke="#e4e3de" x1="78" y1="221.0" x2="640" y2="221.0"/><text class="t2" x="70" y="225.0" font-size="12" text-anchor="end">1</text>
<line class="grid" stroke="#e4e3de" x1="78" y1="142.5" x2="640" y2="142.5"/><text class="t2" x="70" y="146.5" font-size="12" text-anchor="end">10</text>
<line class="grid" stroke="#e4e3de" x1="78" y1="64.0" x2="640" y2="64.0"/><text class="t2" x="70" y="68.0" font-size="12" text-anchor="end">100</text>
<text class="t2" x="359.0" y="424" font-size="13" text-anchor="middle">Įvesties dydis, baitai (log. skalė)</text>
<text class="t2" transform="translate(20 221.0) rotate(-90)" font-size="13" text-anchor="middle">Laikas vienai maišai, µs (log. skalė)</text>
<path class="s-v2" stroke="#2a78d6" d="M196.7,300.6 L231.1,295.4 L262.3,284.7 L297.0,271.7 L358.8,243.7 L396.2,225.1 L439.0,202.2 L494.1,172.1 L543.0,145.3 L594.5,116.6 L622.9,100.8" fill="none" stroke-width="2" stroke-linejoin="round"/>
<circle class="f-v2 ring" fill="#2a78d6" stroke="#fcfcfb" stroke-width="2" cx="196.7" cy="300.6" r="4.5"><title>2 versija: 70 B – 0,097 µs</title></circle>
<circle class="f-v2 ring" fill="#2a78d6" stroke="#fcfcfb" stroke-width="2" cx="231.1" cy="295.4" r="4.5"><title>2 versija: 123 B – 0,113 µs</title></circle>
<circle class="f-v2 ring" fill="#2a78d6" stroke="#fcfcfb" stroke-width="2" cx="262.3" cy="284.7" r="4.5"><title>2 versija: 205 B – 0,154 µs</title></circle>
<circle class="f-v2 ring" fill="#2a78d6" stroke="#fcfcfb" stroke-width="2" cx="297.0" cy="271.7" r="4.5"><title>2 versija: 362 B – 0,226 µs</title></circle>
<circle class="f-v2 ring" fill="#2a78d6" stroke="#fcfcfb" stroke-width="2" cx="358.8" cy="243.7" r="4.5"><title>2 versija: 996 B – 0,514 µs</title></circle>
<circle class="f-v2 ring" fill="#2a78d6" stroke="#fcfcfb" stroke-width="2" cx="396.2" cy="225.1" r="4.5"><title>2 versija: 1 841 B – 0,887 µs</title></circle>
<circle class="f-v2 ring" fill="#2a78d6" stroke="#fcfcfb" stroke-width="2" cx="439.0" cy="202.2" r="4.5"><title>2 versija: 3 712 B – 1,737 µs</title></circle>
<circle class="f-v2 ring" fill="#2a78d6" stroke="#fcfcfb" stroke-width="2" cx="494.1" cy="172.1" r="4.5"><title>2 versija: 9 155 B – 4,194 µs</title></circle>
<circle class="f-v2 ring" fill="#2a78d6" stroke="#fcfcfb" stroke-width="2" cx="543.0" cy="145.3" r="4.5"><title>2 versija: 20 409 B – 9,221 µs</title></circle>
<circle class="f-v2 ring" fill="#2a78d6" stroke="#fcfcfb" stroke-width="2" cx="594.5" cy="116.6" r="4.5"><title>2 versija: 47 434 B – 21,366 µs</title></circle>
<circle class="f-v2 ring" fill="#2a78d6" stroke="#fcfcfb" stroke-width="2" cx="622.9" cy="100.8" r="4.5"><title>2 versija: 75 595 B – 34,008 µs</title></circle>
<text class="t" x="632.9" y="104.8" font-size="12">2 versija</text>
<path class="s-v1" stroke="#eb6834" d="M196.7,347.8 L231.1,338.8 L262.3,327.0 L297.0,310.9 L358.8,279.6 L396.2,259.5 L439.0,236.3 L494.1,206.1 L543.0,178.8 L594.5,150.1 L622.9,134.2" fill="none" stroke-width="2" stroke-linejoin="round"/>
<circle class="f-v1 ring" fill="#eb6834" stroke="#fcfcfb" stroke-width="2" cx="196.7" cy="347.8" r="4.5"><title>1 versija: 70 B – 0,024 µs</title></circle>
<circle class="f-v1 ring" fill="#eb6834" stroke="#fcfcfb" stroke-width="2" cx="231.1" cy="338.8" r="4.5"><title>1 versija: 123 B – 0,032 µs</title></circle>
<circle class="f-v1 ring" fill="#eb6834" stroke="#fcfcfb" stroke-width="2" cx="262.3" cy="327.0" r="4.5"><title>1 versija: 205 B – 0,045 µs</title></circle>
<circle class="f-v1 ring" fill="#eb6834" stroke="#fcfcfb" stroke-width="2" cx="297.0" cy="310.9" r="4.5"><title>1 versija: 362 B – 0,072 µs</title></circle>
<circle class="f-v1 ring" fill="#eb6834" stroke="#fcfcfb" stroke-width="2" cx="358.8" cy="279.6" r="4.5"><title>1 versija: 996 B – 0,179 µs</title></circle>
<circle class="f-v1 ring" fill="#eb6834" stroke="#fcfcfb" stroke-width="2" cx="396.2" cy="259.5" r="4.5"><title>1 versija: 1 841 B – 0,323 µs</title></circle>
<circle class="f-v1 ring" fill="#eb6834" stroke="#fcfcfb" stroke-width="2" cx="439.0" cy="236.3" r="4.5"><title>1 versija: 3 712 B – 0,638 µs</title></circle>
<circle class="f-v1 ring" fill="#eb6834" stroke="#fcfcfb" stroke-width="2" cx="494.1" cy="206.1" r="4.5"><title>1 versija: 9 155 B – 1,550 µs</title></circle>
<circle class="f-v1 ring" fill="#eb6834" stroke="#fcfcfb" stroke-width="2" cx="543.0" cy="178.8" r="4.5"><title>1 versija: 20 409 B – 3,443 µs</title></circle>
<circle class="f-v1 ring" fill="#eb6834" stroke="#fcfcfb" stroke-width="2" cx="594.5" cy="150.1" r="4.5"><title>1 versija: 47 434 B – 7,996 µs</title></circle>
<circle class="f-v1 ring" fill="#eb6834" stroke="#fcfcfb" stroke-width="2" cx="622.9" cy="134.2" r="4.5"><title>1 versija: 75 595 B – 12,740 µs</title></circle>
<text class="t" x="632.9" y="138.2" font-size="12">1 versija</text>
<path class="s-ratas" stroke="#1baf7a" d="M196.7,291.9 L231.1,281.7 L262.3,269.4 L297.0,253.4 L358.8,222.3 L396.2,202.3 L439.0,179.0 L494.1,148.6 L543.0,121.4 L594.5,92.8 L622.9,76.7" fill="none" stroke-width="2" stroke-linejoin="round"/>
<circle class="f-ratas ring" fill="#1baf7a" stroke="#fcfcfb" stroke-width="2" cx="196.7" cy="291.9" r="4.5"><title>Ratas v0.1: 70 B – 0,125 µs</title></circle>
<circle class="f-ratas ring" fill="#1baf7a" stroke="#fcfcfb" stroke-width="2" cx="231.1" cy="281.7" r="4.5"><title>Ratas v0.1: 123 B – 0,168 µs</title></circle>
<circle class="f-ratas ring" fill="#1baf7a" stroke="#fcfcfb" stroke-width="2" cx="262.3" cy="269.4" r="4.5"><title>Ratas v0.1: 205 B – 0,242 µs</title></circle>
<circle class="f-ratas ring" fill="#1baf7a" stroke="#fcfcfb" stroke-width="2" cx="297.0" cy="253.4" r="4.5"><title>Ratas v0.1: 362 B – 0,386 µs</title></circle>
<circle class="f-ratas ring" fill="#1baf7a" stroke="#fcfcfb" stroke-width="2" cx="358.8" cy="222.3" r="4.5"><title>Ratas v0.1: 996 B – 0,963 µs</title></circle>
<circle class="f-ratas ring" fill="#1baf7a" stroke="#fcfcfb" stroke-width="2" cx="396.2" cy="202.3" r="4.5"><title>Ratas v0.1: 1 841 B – 1,731 µs</title></circle>
<circle class="f-ratas ring" fill="#1baf7a" stroke="#fcfcfb" stroke-width="2" cx="439.0" cy="179.0" r="4.5"><title>Ratas v0.1: 3 712 B – 3,428 µs</title></circle>
<circle class="f-ratas ring" fill="#1baf7a" stroke="#fcfcfb" stroke-width="2" cx="494.1" cy="148.6" r="4.5"><title>Ratas v0.1: 9 155 B – 8,370 µs</title></circle>
<circle class="f-ratas ring" fill="#1baf7a" stroke="#fcfcfb" stroke-width="2" cx="543.0" cy="121.4" r="4.5"><title>Ratas v0.1: 20 409 B – 18,559 µs</title></circle>
<circle class="f-ratas ring" fill="#1baf7a" stroke="#fcfcfb" stroke-width="2" cx="594.5" cy="92.8" r="4.5"><title>Ratas v0.1: 47 434 B – 43,015 µs</title></circle>
<circle class="f-ratas ring" fill="#1baf7a" stroke="#fcfcfb" stroke-width="2" cx="622.9" cy="76.7" r="4.5"><title>Ratas v0.1: 75 595 B – 68,884 µs</title></circle>
<text class="t" x="632.9" y="80.7" font-size="12">Ratas v0.1</text>
</svg>
