<svg xmlns="http://www.w3.org/2000/svg" width="760" height="440" viewBox="0 0 760 440" role="img" aria-label="Vienos maišos laikas (tas pats kompiuteris, Linux)">
<style>text{font-family:system-ui,-apple-system,'Segoe UI',sans-serif} .bg{fill:#fcfcfb} .t{fill:#0b0b0b} .t2{fill:#52514e} .grid{stroke:#e4e3de} .f-ratas{fill:#eb6834} .s-ratas{stroke:#eb6834} .f-di{fill:#2a78d6} .s-di{stroke:#2a78d6} .f-md5{fill:#1baf7a} .s-md5{stroke:#1baf7a} .f-sha1{fill:#8a63d2} .s-sha1{stroke:#8a63d2} .f-sha256{fill:#c43d7a} .s-sha256{stroke:#c43d7a} .ring{stroke:#fcfcfb} @media (prefers-color-scheme: dark){.bg{fill:#1a1a19} .t{fill:#ffffff} .t2{fill:#c3c2b7} .grid{stroke:#353533} .f-ratas{fill:#d95926} .s-ratas{stroke:#d95926} .f-di{fill:#3987e5} .s-di{stroke:#3987e5} .f-md5{fill:#2fc48d} .s-md5{stroke:#2fc48d} .f-sha1{fill:#a585e6} .s-sha1{stroke:#a585e6} .f-sha256{fill:#e0619a} .s-sha256{stroke:#e0619a} .ring{stroke:#1a1a19}}</style>
<rect class="bg" fill="#fcfcfb" width="760" height="440"/>
<text class="t" x="78" y="26" font-size="16" font-weight="600">Vienos maišos laikas (tas pats kompiuteris, Linux)</text>
<line class="s-ratas" stroke="#eb6834" stroke-width="2.5" x1="78" y1="46" x2="96" y2="46"/><text class="t2" x="101" y="50" font-size="12">Ratas-256</text>
<line class="s-di" stroke="#2a78d6" stroke-width="2.5" x1="203" y1="46" x2="221" y2="46"/><text class="t2" x="226" y="50" font-size="12">DI maiša</text>
<line class="s-md5" stroke="#1baf7a" stroke-width="2.5" stroke-dasharray="5 3" x1="328" y1="46" x2="346" y2="46"/><text class="t2" x="351" y="50" font-size="12">MD5</text>
<line class="s-sha1" stroke="#8a63d2" stroke-width="2.5" stroke-dasharray="5 3" x1="453" y1="46" x2="471" y2="46"/><text class="t2" x="476" y="50" font-size="12">SHA-1</text>
<line class="s-sha256" stroke="#c43d7a" stroke-width="2.5" stroke-dasharray="5 3" x1="578" y1="46" x2="596" y2="46"/><text class="t2" x="601" y="50" font-size="12">SHA-256</text>
<text class="t2" x="78" y="66" font-size="11">punktyras – standartinės realizacijos (OpenSSL)</text>
<line class="grid" stroke="#e4e3de" x1="78.0" y1="74" x2="78.0" y2="378"/><text class="t2" x="78.0" y="396" font-size="12" text-anchor="middle">10</text>
<line class="grid" stroke="#e4e3de" x1="221.0" y1="74" x2="221.0" y2="378"/><text class="t2" x="221.0" y="396" font-size="12" text-anchor="middle">100</text>
<line class="grid" stroke="#e4e3de" x1="364.0" y1="74" x2="364.0" y2="378"/><text class="t2" x="364.0" y="396" font-size="12" text-anchor="middle">1 000</text>
<line class="grid" stroke="#e4e3de" x1="507.0" y1="74" x2="507.0" y2="378"/><text class="t2" x="507.0" y="396" font-size="12" text-anchor="middle">10 000</text>
<line class="grid" stroke="#e4e3de" x1="650.0" y1="74" x2="650.0" y2="378"/><text class="t2" x="650.0" y="396" font-size="12" text-anchor="middle">100 000</text>
<line class="grid" stroke="#e4e3de" x1="78" y1="378.0" x2="650" y2="378.0"/><text class="t2" x="70" y="382.0" font-size="12" text-anchor="end">0,1</text>
<line class="grid" stroke="#e4e3de" x1="78" y1="302.0" x2="650" y2="302.0"/><text class="t2" x="70" y="306.0" font-size="12" text-anchor="end">1</text>
<line class="grid" stroke="#e4e3de" x1="78" y1="226.0" x2="650" y2="226.0"/><text class="t2" x="70" y="230.0" font-size="12" text-anchor="end">10</text>
<line class="grid" stroke="#e4e3de" x1="78" y1="150.0" x2="650" y2="150.0"/><text class="t2" x="70" y="154.0" font-size="12" text-anchor="end">100</text>
<line class="grid" stroke="#e4e3de" x1="78" y1="74.0" x2="650" y2="74.0"/><text class="t2" x="70" y="78.0" font-size="12" text-anchor="end">1 000</text>
<text class="t2" x="364.0" y="424" font-size="13" text-anchor="middle">Įvesties dydis, baitai (log. skalė)</text>
<text class="t2" transform="translate(20 226.0) rotate(-90)" font-size="13" text-anchor="middle">Laikas vienai maišai, µs (log. skalė)</text>
<path class="s-ratas" stroke="#eb6834" fill="none" stroke-width="2" stroke-linejoin="round" d="M198.8,348.2 L233.9,336.8 L265.6,323.2 L300.9,306.6 L363.8,275.2 L401.9,255.6 L445.5,232.9 L501.5,203.1 L551.3,177.1 L603.7,149.2 L632.6,133.9"/>
<circle class="f-ratas ring" fill="#eb6834" stroke="#fcfcfb" stroke-width="1.5" cx="198.8" cy="348.2" r="3.5"><title>Ratas-256: 70 B – 0,247 µs</title></circle>
<circle class="f-ratas ring" fill="#eb6834" stroke="#fcfcfb" stroke-width="1.5" cx="233.9" cy="336.8" r="3.5"><title>Ratas-256: 123 B – 0,349 µs</title></circle>
<circle class="f-ratas ring" fill="#eb6834" stroke="#fcfcfb" stroke-width="1.5" cx="265.6" cy="323.2" r="3.5"><title>Ratas-256: 205 B – 0,527 µs</title></circle>
<circle class="f-ratas ring" fill="#eb6834" stroke="#fcfcfb" stroke-width="1.5" cx="300.9" cy="306.6" r="3.5"><title>Ratas-256: 362 B – 0,869 µs</title></circle>
<circle class="f-ratas ring" fill="#eb6834" stroke="#fcfcfb" stroke-width="1.5" cx="363.8" cy="275.2" r="3.5"><title>Ratas-256: 996 B – 2,253 µs</title></circle>
<circle class="f-ratas ring" fill="#eb6834" stroke="#fcfcfb" stroke-width="1.5" cx="401.9" cy="255.6" r="3.5"><title>Ratas-256: 1 841 B – 4,075 µs</title></circle>
<circle class="f-ratas ring" fill="#eb6834" stroke="#fcfcfb" stroke-width="1.5" cx="445.5" cy="232.9" r="3.5"><title>Ratas-256: 3 712 B – 8,108 µs</title></circle>
<circle class="f-ratas ring" fill="#eb6834" stroke="#fcfcfb" stroke-width="1.5" cx="501.5" cy="203.1" r="3.5"><title>Ratas-256: 9 155 B – 19,987 µs</title></circle>
<circle class="f-ratas ring" fill="#eb6834" stroke="#fcfcfb" stroke-width="1.5" cx="551.3" cy="177.1" r="3.5"><title>Ratas-256: 20 409 B – 44,019 µs</title></circle>
<circle class="f-ratas ring" fill="#eb6834" stroke="#fcfcfb" stroke-width="1.5" cx="603.7" cy="149.2" r="3.5"><title>Ratas-256: 47 434 B – 102,545 µs</title></circle>
<circle class="f-ratas ring" fill="#eb6834" stroke="#fcfcfb" stroke-width="1.5" cx="632.6" cy="133.9" r="3.5"><title>Ratas-256: 75 595 B – 162,958 µs</title></circle>
<path class="s-di" stroke="#2a78d6" fill="none" stroke-width="2" stroke-linejoin="round" d="M198.8,350.0 L233.9,346.0 L265.6,336.3 L300.9,324.7 L363.8,298.8 L401.9,281.1 L445.5,259.2 L501.5,230.3 L551.3,204.3 L603.7,176.6 L632.6,161.2"/>
<circle class="f-di ring" fill="#2a78d6" stroke="#fcfcfb" stroke-width="1.5" cx="198.8" cy="350.0" r="3.5"><title>DI maiša: 70 B – 0,234 µs</title></circle>
<circle class="f-di ring" fill="#2a78d6" stroke="#fcfcfb" stroke-width="1.5" cx="233.9" cy="346.0" r="3.5"><title>DI maiša: 123 B – 0,264 µs</title></circle>
<circle class="f-di ring" fill="#2a78d6" stroke="#fcfcfb" stroke-width="1.5" cx="265.6" cy="336.3" r="3.5"><title>DI maiša: 205 B – 0,354 µs</title></circle>
<circle class="f-di ring" fill="#2a78d6" stroke="#fcfcfb" stroke-width="1.5" cx="300.9" cy="324.7" r="3.5"><title>DI maiša: 362 B – 0,503 µs</title></circle>
<circle class="f-di ring" fill="#2a78d6" stroke="#fcfcfb" stroke-width="1.5" cx="363.8" cy="298.8" r="3.5"><title>DI maiša: 996 B – 1,100 µs</title></circle>
<circle class="f-di ring" fill="#2a78d6" stroke="#fcfcfb" stroke-width="1.5" cx="401.9" cy="281.1" r="3.5"><title>DI maiša: 1 841 B – 1,883 µs</title></circle>
<circle class="f-di ring" fill="#2a78d6" stroke="#fcfcfb" stroke-width="1.5" cx="445.5" cy="259.2" r="3.5"><title>DI maiša: 3 712 B – 3,652 µs</title></circle>
<circle class="f-di ring" fill="#2a78d6" stroke="#fcfcfb" stroke-width="1.5" cx="501.5" cy="230.3" r="3.5"><title>DI maiša: 9 155 B – 8,781 µs</title></circle>
<circle class="f-di ring" fill="#2a78d6" stroke="#fcfcfb" stroke-width="1.5" cx="551.3" cy="204.3" r="3.5"><title>DI maiša: 20 409 B – 19,309 µs</title></circle>
<circle class="f-di ring" fill="#2a78d6" stroke="#fcfcfb" stroke-width="1.5" cx="603.7" cy="176.6" r="3.5"><title>DI maiša: 47 434 B – 44,618 µs</title></circle>
<circle class="f-di ring" fill="#2a78d6" stroke="#fcfcfb" stroke-width="1.5" cx="632.6" cy="161.2" r="3.5"><title>DI maiša: 75 595 B – 71,272 µs</title></circle>
<path class="s-md5" stroke="#1baf7a" fill="none" stroke-width="2" stroke-dasharray="5 3" stroke-linejoin="round" d="M198.8,362.7 L233.9,352.0 L265.6,343.5 L300.9,331.3 L363.8,300.5 L401.9,280.9 L445.5,258.5 L501.5,229.3 L551.3,202.9 L603.7,175.3 L632.6,159.9"/>
<circle class="f-md5 ring" fill="#1baf7a" stroke="#fcfcfb" stroke-width="1.5" cx="198.8" cy="362.7" r="3.5"><title>MD5: 70 B – 0,159 µs</title></circle>
<circle class="f-md5 ring" fill="#1baf7a" stroke="#fcfcfb" stroke-width="1.5" cx="233.9" cy="352.0" r="3.5"><title>MD5: 123 B – 0,220 µs</title></circle>
<circle class="f-md5 ring" fill="#1baf7a" stroke="#fcfcfb" stroke-width="1.5" cx="265.6" cy="343.5" r="3.5"><title>MD5: 205 B – 0,285 µs</title></circle>
<circle class="f-md5 ring" fill="#1baf7a" stroke="#fcfcfb" stroke-width="1.5" cx="300.9" cy="331.3" r="3.5"><title>MD5: 362 B – 0,411 µs</title></circle>
<circle class="f-md5 ring" fill="#1baf7a" stroke="#fcfcfb" stroke-width="1.5" cx="363.8" cy="300.5" r="3.5"><title>MD5: 996 B – 1,045 µs</title></circle>
<circle class="f-md5 ring" fill="#1baf7a" stroke="#fcfcfb" stroke-width="1.5" cx="401.9" cy="280.9" r="3.5"><title>MD5: 1 841 B – 1,897 µs</title></circle>
<circle class="f-md5 ring" fill="#1baf7a" stroke="#fcfcfb" stroke-width="1.5" cx="445.5" cy="258.5" r="3.5"><title>MD5: 3 712 B – 3,732 µs</title></circle>
<circle class="f-md5 ring" fill="#1baf7a" stroke="#fcfcfb" stroke-width="1.5" cx="501.5" cy="229.3" r="3.5"><title>MD5: 9 155 B – 9,057 µs</title></circle>
<circle class="f-md5 ring" fill="#1baf7a" stroke="#fcfcfb" stroke-width="1.5" cx="551.3" cy="202.9" r="3.5"><title>MD5: 20 409 B – 20,154 µs</title></circle>
<circle class="f-md5 ring" fill="#1baf7a" stroke="#fcfcfb" stroke-width="1.5" cx="603.7" cy="175.3" r="3.5"><title>MD5: 47 434 B – 46,482 µs</title></circle>
<circle class="f-md5 ring" fill="#1baf7a" stroke="#fcfcfb" stroke-width="1.5" cx="632.6" cy="159.9" r="3.5"><title>MD5: 75 595 B – 74,195 µs</title></circle>
<path class="s-sha1" stroke="#8a63d2" fill="none" stroke-width="2" stroke-dasharray="5 3" stroke-linejoin="round" d="M198.8,363.6 L233.9,352.5 L265.6,347.8 L300.9,337.4 L363.8,308.9 L401.9,290.4 L445.5,268.2 L501.5,239.3 L551.3,213.0 L603.7,185.2 L632.6,169.6"/>
<circle class="f-sha1 ring" fill="#8a63d2" stroke="#fcfcfb" stroke-width="1.5" cx="198.8" cy="363.6" r="3.5"><title>SHA-1: 70 B – 0,155 µs</title></circle>
<circle class="f-sha1 ring" fill="#8a63d2" stroke="#fcfcfb" stroke-width="1.5" cx="233.9" cy="352.5" r="3.5"><title>SHA-1: 123 B – 0,216 µs</title></circle>
<circle class="f-sha1 ring" fill="#8a63d2" stroke="#fcfcfb" stroke-width="1.5" cx="265.6" cy="347.8" r="3.5"><title>SHA-1: 205 B – 0,250 µs</title></circle>
<circle class="f-sha1 ring" fill="#8a63d2" stroke="#fcfcfb" stroke-width="1.5" cx="300.9" cy="337.4" r="3.5"><title>SHA-1: 362 B – 0,342 µs</title></circle>
<circle class="f-sha1 ring" fill="#8a63d2" stroke="#fcfcfb" stroke-width="1.5" cx="363.8" cy="308.9" r="3.5"><title>SHA-1: 996 B – 0,811 µs</title></circle>
<circle class="f-sha1 ring" fill="#8a63d2" stroke="#fcfcfb" stroke-width="1.5" cx="401.9" cy="290.4" r="3.5"><title>SHA-1: 1 841 B – 1,423 µs</title></circle>
<circle class="f-sha1 ring" fill="#8a63d2" stroke="#fcfcfb" stroke-width="1.5" cx="445.5" cy="268.2" r="3.5"><title>SHA-1: 3 712 B – 2,788 µs</title></circle>
<circle class="f-sha1 ring" fill="#8a63d2" stroke="#fcfcfb" stroke-width="1.5" cx="501.5" cy="239.3" r="3.5"><title>SHA-1: 9 155 B – 6,678 µs</title></circle>
<circle class="f-sha1 ring" fill="#8a63d2" stroke="#fcfcfb" stroke-width="1.5" cx="551.3" cy="213.0" r="3.5"><title>SHA-1: 20 409 B – 14,846 µs</title></circle>
<circle class="f-sha1 ring" fill="#8a63d2" stroke="#fcfcfb" stroke-width="1.5" cx="603.7" cy="185.2" r="3.5"><title>SHA-1: 47 434 B – 34,371 µs</title></circle>
<circle class="f-sha1 ring" fill="#8a63d2" stroke="#fcfcfb" stroke-width="1.5" cx="632.6" cy="169.6" r="3.5"><title>SHA-1: 75 595 B – 55,289 µs</title></circle>
<path class="s-sha256" stroke="#c43d7a" fill="none" stroke-width="2" stroke-dasharray="5 3" stroke-linejoin="round" d="M198.8,343.5 L233.9,332.2 L265.6,325.4 L300.9,314.0 L363.8,284.7 L401.9,265.1 L445.5,242.5 L501.5,213.3 L551.3,186.9 L603.7,159.2 L632.6,143.7"/>
<circle class="f-sha256 ring" fill="#c43d7a" stroke="#fcfcfb" stroke-width="1.5" cx="198.8" cy="343.5" r="3.5"><title>SHA-256: 70 B – 0,285 µs</title></circle>
<circle class="f-sha256 ring" fill="#c43d7a" stroke="#fcfcfb" stroke-width="1.5" cx="233.9" cy="332.2" r="3.5"><title>SHA-256: 123 B – 0,401 µs</title></circle>
<circle class="f-sha256 ring" fill="#c43d7a" stroke="#fcfcfb" stroke-width="1.5" cx="265.6" cy="325.4" r="3.5"><title>SHA-256: 205 B – 0,493 µs</title></circle>
<circle class="f-sha256 ring" fill="#c43d7a" stroke="#fcfcfb" stroke-width="1.5" cx="300.9" cy="314.0" r="3.5"><title>SHA-256: 362 B – 0,695 µs</title></circle>
<circle class="f-sha256 ring" fill="#c43d7a" stroke="#fcfcfb" stroke-width="1.5" cx="363.8" cy="284.7" r="3.5"><title>SHA-256: 996 B – 1,688 µs</title></circle>
<circle class="f-sha256 ring" fill="#c43d7a" stroke="#fcfcfb" stroke-width="1.5" cx="401.9" cy="265.1" r="3.5"><title>SHA-256: 1 841 B – 3,056 µs</title></circle>
<circle class="f-sha256 ring" fill="#c43d7a" stroke="#fcfcfb" stroke-width="1.5" cx="445.5" cy="242.5" r="3.5"><title>SHA-256: 3 712 B – 6,058 µs</title></circle>
<circle class="f-sha256 ring" fill="#c43d7a" stroke="#fcfcfb" stroke-width="1.5" cx="501.5" cy="213.3" r="3.5"><title>SHA-256: 9 155 B – 14,680 µs</title></circle>
<circle class="f-sha256 ring" fill="#c43d7a" stroke="#fcfcfb" stroke-width="1.5" cx="551.3" cy="186.9" r="3.5"><title>SHA-256: 20 409 B – 32,661 µs</title></circle>
<circle class="f-sha256 ring" fill="#c43d7a" stroke="#fcfcfb" stroke-width="1.5" cx="603.7" cy="159.2" r="3.5"><title>SHA-256: 47 434 B – 75,617 µs</title></circle>
<circle class="f-sha256 ring" fill="#c43d7a" stroke="#fcfcfb" stroke-width="1.5" cx="632.6" cy="143.7" r="3.5"><title>SHA-256: 75 595 B – 121,122 µs</title></circle>
<text class="t" x="642.6" y="127.6" font-size="12">Ratas-256</text>
<text class="t" x="642.6" y="142.6" font-size="12">SHA-256</text>
<text class="t" x="642.6" y="157.6" font-size="12">MD5</text>
<text class="t" x="642.6" y="172.6" font-size="12">DI maiša</text>
<text class="t" x="642.6" y="187.6" font-size="12">SHA-1</text>
</svg>
